Coordinates
version=1
nRows=7
nColumns=46
inDegrees=yes

Units are S.I. units (second, meters, Newtons, ...)
Angles are in degrees.

endheader
time	pelvis_tilt	pelvis_list	pelvis_rotation	pelvis_tx	pelvis_ty	pelvis_tz	bb_angle	bb_tx	bb_ty	bb_tz	hip_flexion_r	hip_adduction_r	hip_rotation_r	knee_angle_r	knee_angle_r_beta	ankle_angle_r	subtalar_angle_r	mtp_angle_r	crank_angle_r	hip_flexion_l	hip_adduction_l	hip_rotation_l	knee_angle_l	knee_angle_l_beta	ankle_angle_l	subtalar_angle_l	mtp_angle_l	crank_angle_l	lumbar_extension	lumbar_bending	lumbar_rotation	arm_flex_r	arm_add_r	arm_rot_r	elbow_flex_r	pro_sup_r	wrist_flex_r	wrist_dev_r	arm_flex_l	arm_add_l	arm_rot_l	elbow_flex_l	pro_sup_l	wrist_flex_l	wrist_dev_l
      2.50000000	    -27.59471596	     -1.93024412	     -9.00081975	      0.30629780	      1.06222240	     -0.26041413	      0.00000000	      0.50000000	      0.00000000	      0.25000000	     62.73373626	     -0.31448227	      0.55092234	     55.44177043	      0.96764144	      5.53430159	     -2.61296410	      0.00000000	      0.00000000	     59.11951925	     -5.38016813	      1.22888544	     89.24634646	      1.55764259	    -25.38772004	    -22.85964502	      0.00000000	      0.00000000	    -55.61231042	      0.30416584	      1.51886890	     59.05026384	    -12.45913119	     20.59535132	     92.49010734	     51.50789616	      0.00000000	      0.00000000	     44.16260335	    -19.46889363	      6.17612293	    101.36762024	     51.94073198	      0.00000000	      0.00000000
      2.50500000	    -27.46614864	     -1.49849099	     -8.35776394	      0.30637908	      1.05986742	     -0.26153329	      0.00000000	      0.50000000	      0.00000000	      0.25000000	     61.75461308	     -1.05867587	      0.74693812	     54.03006858	      0.94300259	      4.80997549	     -2.68616529	      0.00000000	      0.00000000	     60.19789577	     -4.74759275	      0.95469072	     91.28869730	      1.59328834	    -24.76149840	    -23.08533024	      0.00000000	      0.00000000	    -55.38947024	      0.33036925	      0.81636990	     58.73225439	    -12.71736049	     20.53304308	     92.55088750	     51.52073190	      0.00000000	      0.00000000	     44.21572967	    -19.46209605	      6.36196869	    101.40733067	     51.96970402	      0.00000000	      0.00000000
      2.51000000	    -27.55191345	     -1.36017208	     -7.51685832	      0.30640787	      1.05719289	     -0.26293235	      0.00000000	      0.50000000	      0.00000000	      0.25000000	     60.92642135	     -1.81928687	      0.38790303	     52.59743018	      0.91799833	      3.37627487	     -3.46407229	      0.00000000	      0.00000000	     61.60119223	     -4.18128925	      1.16349203	     93.43605488	      1.63076680	    -23.54061833	    -22.38240828	      0.00000000	      0.00000000	    -54.94076571	      0.74913519	      0.38843970	     57.99608440	    -13.15787903	     20.49026592	     92.98194944	     51.61784186	      0.00000000	      0.00000000	     44.11027610	    -19.78146193	      6.96618371	    101.53564599	     52.07242474	      0.00000000	      0.00000000
      2.51500000	    -27.31893236	     -0.83385840	     -7.00479231	      0.30650039	      1.05493691	     -0.26374491	      0.00000000	      0.50000000	      0.00000000	      0.25000000	     59.91064481	     -2.54777871	      0.69758008	     51.38331133	      0.89680796	      2.89579578	     -3.27136129	      0.00000000	      0.00000000	     62.56714218	     -3.71099788	      0.67287759	     95.37896460	      1.66467697	    -23.10777631	    -22.50482253	      0.00000000	      0.00000000	    -54.79985767	      0.60852684	     -0.33030532	     57.80442926	    -13.33999845	     20.40054035	     93.05642760	     51.62711365	      0.00000000	      0.00000000	     44.10462770	    -19.71424229	      7.12996963	    101.49087385	     52.08532828	      0.00000000	      0.00000000
      2.52000000	    -27.21922727	     -0.46701194	     -6.25093840	      0.30684262	      1.05294730	     -0.26515025	      0.00000000	      0.50000000	      0.00000000	      0.25000000	     58.88722018	     -3.49861611	      0.43156394	     49.96844164	      0.87211383	      1.69021321	     -3.33223710	      0.00000000	      0.00000000	     63.60380427	     -3.02262766	      0.61176195	     97.21813319	      1.69677652	    -21.66968084	    -21.67278677	      0.00000000	      0.00000000	    -54.53223797	      0.79709215	     -0.84322990	     57.05281680	    -13.58519217	     20.12769336	     93.48385366	     51.70535938	      0.00000000	      0.00000000	     44.11597868	    -19.99021817	      7.67634315	    101.42972100	     52.15222587	      0.00000000	      0.00000000
      2.52500000	    -27.03139795	      0.05273573	     -5.71492006	      0.30733417	      1.05110195	     -0.26585056	      0.00000000	      0.50000000	      0.00000000	      0.25000000	     57.90998615	     -4.35480687	      0.43938147	     48.82011860	      0.85207181	      0.86392110	     -3.00129761	      0.00000000	      0.00000000	     64.49267882	     -2.53744218	      0.18171604	     98.95954890	      1.72716995	    -20.89397077	    -21.71244226	      0.00000000	      0.00000000	    -54.34574903	      0.69395655	     -1.49613361	     56.66447482	    -13.70752443	     20.01017545	     93.52328346	     51.71213520	      0.00000000	      0.00000000	     44.12260042	    -19.99604193	      7.86287801	    101.35712849	     52.16491476	      0.00000000	      0.00000000
      2.53000000	    -26.83279282	      0.48434396	     -5.17159721	      0.30773353	      1.04910361	     -0.26662814	      0.00000000	      0.50000000	      0.00000000	      0.25000000	     56.95306077	     -5.20774755	      0.25264479	     47.78701541	      0.83404076	     -0.05569222	     -2.77314305	      0.00000000	      0.00000000	     65.40595218	     -2.06871936	     -0.00439471	    100.79408375	      1.75918863	    -19.27404547	    -20.41238042	      0.00000000	      0.00000000	    -54.14131061	      0.65528947	     -2.03687092	     55.97325187	    -13.62656908	     19.44184283	     93.79733130	     51.73780948	      0.00000000	      0.00000000	     44.19736161	    -20.28424817	      8.51790147	    101.16057391	     52.22111526	      0.00000000	      0.00000000
